<?xml version="1.0" encoding="UTF-8" standalone="no"?>
<svg width="80px" height="80px" viewBox="0 0 80 80" version="1.1" xmlns="http://www.w3.org/2000/svg" xmlns:xlink="http://www.w3.org/1999/xlink">
    <!-- Generator: Sketch 41.2 (35397) - http://www.bohemiancoding.com/sketch -->
    <title>Fill 1</title>
    <desc>Created with Sketch.</desc>
    <defs></defs>
    <g id="Symbols" stroke="none" stroke-width="1" fill="none" fill-rule="evenodd">
        <g id="Footer" transform="translate(-162.000000, -93.000000)" fill="#FF7800">
            <g id="F3_logo_stack1circle_ai" transform="translate(162.000000, 93.000000)">
                <path d="M44.0775652,60.8006957 L44.0775652,66.9544348 L46.0003478,66.9544348 L46.0003478,60.9137391 L51.0455652,51.4347826 L48.9193043,51.4347826 L45.9332174,57.362087 C45.4803478,58.2678261 45.0956522,59.1043478 45.0956522,59.1043478 C45.0956522,59.1043478 44.7342609,58.2441739 44.3043478,57.362087 L41.3627826,51.4347826 L39.0789565,51.4347826 L44.0775652,60.8006957 Z M31.498087,66.9544348 L39.2351304,66.9544348 L39.4841739,65.3933913 L33.3537391,65.3933913 L33.3537391,51.4347826 L31.498087,51.4347826 L31.498087,66.9544348 Z M19.736,66.9544348 L21.6135652,66.9544348 L21.6135652,59.5787826 L26.5895652,59.5787826 L26.5895652,58.0633043 L21.6135652,58.0633043 L21.6135652,52.9735652 L27.6083478,52.9735652 L27.9022609,51.4347826 L19.736,51.4347826 L19.736,66.9544348 Z M66.4873043,47.6664348 L61.645913,39.138087 L65.5815652,32.08 L62.9798261,32.08 L60.3109565,37.373913 L57.5057391,32.08 L54.8587826,32.08 L59.021913,39.2737391 L54.3161739,47.6664348 L56.9627826,47.6664348 L60.3335652,40.9707826 L63.84,47.6664348 L66.4873043,47.6664348 Z M51.4667826,47.6664348 L51.4667826,45.7892174 L44.9516522,45.7892174 L44.9516522,40.450087 L49.952,40.450087 L49.952,38.6177391 L44.9290435,38.6177391 L44.9290435,33.8667826 L50.9238261,33.8667826 L51.2187826,32.08 L42.7346087,32.08 L42.7346087,47.6664348 L51.4667826,47.6664348 Z M39.6389565,45.8570435 L33.7116522,45.8570435 L33.7116522,32.08 L31.4949565,32.08 L31.4949565,47.6664348 L39.2765217,47.6664348 L39.6389565,45.8570435 Z M27.8556522,32.08 L19.733913,32.08 L19.733913,47.6664348 L21.9286957,47.6664348 L21.9286957,40.36 L26.5433043,40.36 L26.5433043,38.5951304 L21.9286957,38.5951304 L21.9286957,33.8667826 L27.5610435,33.8667826 L27.8556522,32.08 Z M38.2163478,12.5926957 L38.2163478,15.2173913 L42.061913,15.2173913 L42.061913,28.3158261 L45.2747826,28.3158261 L45.2747826,15.2173913 L49.029913,15.2173913 L49.5506087,12.5926957 L38.2163478,12.5926957 Z M31.5210435,28.3158261 L34.824,28.3158261 L34.824,12.5930435 L31.5210435,12.5930435 L31.5210435,28.3158261 Z M19.7370435,12.5926957 L19.7370435,28.3158261 L22.9050435,28.3158261 L22.9050435,21.3252174 L26.9085217,21.3252174 L26.9085217,18.7457391 L22.9050435,18.7457391 L22.9050435,15.1495652 L27.904,15.1495652 L28.266087,12.5926957 L19.7370435,12.5926957 Z M39.8817391,80 C17.8556522,80 0,62.144 0,40.1182609 C0,18.0921739 17.8556522,0.236521739 39.8817391,0.236521739 C61.9078261,0.236521739 79.7638261,18.0921739 79.7638261,40.1182609 C79.7638261,62.144 61.9078261,80 39.8817391,80 Z" id="Fill-1"></path>
            </g>
        </g>
    </g>
</svg>