<?xml version="1.0" encoding="UTF-8"?>
<!-- Generator: Adobe Illustrator 27.0.1, SVG Export Plug-In . SVG Version: 6.00 Build 0)  -->
<svg xmlns="http://www.w3.org/2000/svg" xmlns:xlink="http://www.w3.org/1999/xlink" version="1.1" id="Ebene_1" x="0px" y="0px" viewBox="0 0 662.3 128.3" style="enable-background:new 0 0 662.3 128.3;" xml:space="preserve">
<style type="text/css">
	.st0{fill:url(#SVGID_1_);}
	.st1{fill:url(#SVGID_00000099642620263138979250000015339217998842123676_);}
	.st2{fill:url(#SVGID_00000171707500593805778560000001383573516215849367_);}
	.st3{fill:url(#SVGID_00000110437225371341170330000009455079083746639262_);}
	.st4{fill:url(#SVGID_00000052798730357142367290000017492989582582678461_);}
	.st5{fill:url(#SVGID_00000161603841072407856080000003095004616664119978_);}
	.st6{fill:url(#SVGID_00000107550581003107751830000010076376250902003610_);}
	.st7{fill:url(#SVGID_00000112590423674599650270000010374541887868954786_);}
	.st8{fill:url(#SVGID_00000119109191843942033030000003447451626738152110_);}
	.st9{fill:url(#SVGID_00000043419933818040549650000011485902669246738590_);}
	.st10{fill:url(#SVGID_00000024720236742848529890000013399671945151090091_);}
	.st11{fill:url(#SVGID_00000114066314201031842430000000716873644320874631_);}
	.st12{fill:url(#SVGID_00000021108248687519543640000004228318635042376884_);}
	.st13{fill:url(#SVGID_00000090263467732144845620000006587151955252240516_);}
	.st14{fill:url(#SVGID_00000086682503219153088730000001147398551440916669_);}
	.st15{fill:url(#SVGID_00000005250222888889926180000001767438623562142621_);}
	.st16{fill:url(#SVGID_00000076601420540047453640000016715228549229694631_);}
	.st17{fill:url(#SVGID_00000176024726365999478550000010651592839669887661_);}
	.st18{fill:url(#SVGID_00000093897129813915042590000000308944183020021905_);}
	.st19{fill:url(#SVGID_00000115508367336634287210000006451577486376075950_);}
	.st20{fill:url(#SVGID_00000117651566205290599730000005633269112231976119_);}
	.st21{fill:url(#SVGID_00000095308651606583462100000002181311729774089902_);}
	.st22{fill:url(#SVGID_00000174578964018979243250000012989067141511789714_);}
	.st23{fill:url(#SVGID_00000030482441163463168960000015922158512887399812_);}
	.st24{fill:url(#SVGID_00000143576322235390755540000002656285269213883547_);}
	.st25{fill:url(#SVGID_00000054967521025199923450000017257967586858775706_);}
	.st26{fill:url(#SVGID_00000076584060648573069080000011852226650198720390_);}
	.st27{fill:url(#SVGID_00000077297061930164296670000006998452572742608776_);}
	.st28{fill:url(#SVGID_00000003820791049755998180000001576005044271248283_);}
	.st29{fill:url(#SVGID_00000021822105621776434570000005701987672139786907_);}
	.st30{fill:url(#SVGID_00000025412058761399443730000002240248427505335201_);}
	.st31{fill:url(#SVGID_00000000184363094929884170000008216818330236154280_);}
	.st32{fill:url(#SVGID_00000141446581609766634450000003357840464795989908_);}
	.st33{fill:url(#SVGID_00000021831076283106486650000005772254017881788583_);}
	.st34{fill:url(#SVGID_00000138559252004472124190000011765151791435462533_);}
	.st35{fill:url(#SVGID_00000141455182617210697530000012424995282542059141_);}
	.st36{fill:#3C3C3C;}
</style>
<g>
	<linearGradient id="SVGID_1_" gradientUnits="userSpaceOnUse" x1="132.7915" y1="116.1135" x2="51.3816" y2="116.1135">
		<stop offset="0" style="stop-color:#28503C"></stop>
		<stop offset="9.835160e-03" style="stop-color:#28503C"></stop>
		<stop offset="0.1819" style="stop-color:#2A553C"></stop>
		<stop offset="0.3743" style="stop-color:#30623A"></stop>
		<stop offset="0.5764" style="stop-color:#3A7838"></stop>
		<stop offset="0.7839" style="stop-color:#489736"></stop>
		<stop offset="0.9902" style="stop-color:#5ABE32"></stop>
		<stop offset="1" style="stop-color:#5ABE32"></stop>
	</linearGradient>
	<path class="st0" d="M124.6,108.4c-4.2,0-7.7,3.4-7.7,7.7c0,4.2,3.4,7.7,7.7,7.7c4.2,0,7.7-3.4,7.7-7.7   C132.3,111.9,128.9,108.4,124.6,108.4"></path>
	
		<linearGradient id="SVGID_00000023258116069125756240000009837426966296118687_" gradientUnits="userSpaceOnUse" x1="132.7915" y1="116.1135" x2="51.3816" y2="116.1135">
		<stop offset="0" style="stop-color:#28503C"></stop>
		<stop offset="9.835160e-03" style="stop-color:#28503C"></stop>
		<stop offset="0.1819" style="stop-color:#2A553C"></stop>
		<stop offset="0.3743" style="stop-color:#30623A"></stop>
		<stop offset="0.5764" style="stop-color:#3A7838"></stop>
		<stop offset="0.7839" style="stop-color:#489736"></stop>
		<stop offset="0.9902" style="stop-color:#5ABE32"></stop>
		<stop offset="1" style="stop-color:#5ABE32"></stop>
	</linearGradient>
	<path style="fill:url(#SVGID_00000023258116069125756240000009837426966296118687_);" d="M102.3,108.4c-4.2,0-7.7,3.4-7.7,7.7   c0,4.2,3.4,7.7,7.7,7.7s7.7-3.4,7.7-7.7C109.9,111.9,106.5,108.4,102.3,108.4"></path>
	
		<linearGradient id="SVGID_00000064348787381570682820000014743929700788158874_" gradientUnits="userSpaceOnUse" x1="132.7915" y1="116.1135" x2="51.3816" y2="116.1135">
		<stop offset="0" style="stop-color:#28503C"></stop>
		<stop offset="9.835160e-03" style="stop-color:#28503C"></stop>
		<stop offset="0.1819" style="stop-color:#2A553C"></stop>
		<stop offset="0.3743" style="stop-color:#30623A"></stop>
		<stop offset="0.5764" style="stop-color:#3A7838"></stop>
		<stop offset="0.7839" style="stop-color:#489736"></stop>
		<stop offset="0.9902" style="stop-color:#5ABE32"></stop>
		<stop offset="1" style="stop-color:#5ABE32"></stop>
	</linearGradient>
	<path style="fill:url(#SVGID_00000064348787381570682820000014743929700788158874_);" d="M79.9,108.4c-4.2,0-7.7,3.4-7.7,7.7   c0,4.2,3.4,7.7,7.7,7.7s7.7-3.4,7.7-7.7C87.6,111.9,84.2,108.4,79.9,108.4"></path>
	
		<linearGradient id="SVGID_00000178921204851624182730000016985535929825196971_" gradientUnits="userSpaceOnUse" x1="132.7915" y1="116.1135" x2="51.3816" y2="116.1135">
		<stop offset="0" style="stop-color:#28503C"></stop>
		<stop offset="9.835160e-03" style="stop-color:#28503C"></stop>
		<stop offset="0.1819" style="stop-color:#2A553C"></stop>
		<stop offset="0.3743" style="stop-color:#30623A"></stop>
		<stop offset="0.5764" style="stop-color:#3A7838"></stop>
		<stop offset="0.7839" style="stop-color:#489736"></stop>
		<stop offset="0.9902" style="stop-color:#5ABE32"></stop>
		<stop offset="1" style="stop-color:#5ABE32"></stop>
	</linearGradient>
	<path style="fill:url(#SVGID_00000178921204851624182730000016985535929825196971_);" d="M57.6,108.4c-4.2,0-7.7,3.4-7.7,7.7   c0,4.2,3.4,7.7,7.7,7.7s7.7-3.4,7.7-7.7C65.2,111.9,61.8,108.4,57.6,108.4"></path>
	
		<linearGradient id="SVGID_00000073703455947549400270000009748088154724627115_" gradientUnits="userSpaceOnUse" x1="132.7915" y1="116.1135" x2="51.3816" y2="116.1135">
		<stop offset="0" style="stop-color:#28503C"></stop>
		<stop offset="9.835160e-03" style="stop-color:#28503C"></stop>
		<stop offset="0.1819" style="stop-color:#2A553C"></stop>
		<stop offset="0.3743" style="stop-color:#30623A"></stop>
		<stop offset="0.5764" style="stop-color:#3A7838"></stop>
		<stop offset="0.7839" style="stop-color:#489736"></stop>
		<stop offset="0.9902" style="stop-color:#5ABE32"></stop>
		<stop offset="1" style="stop-color:#5ABE32"></stop>
	</linearGradient>
	<path style="fill:url(#SVGID_00000073703455947549400270000009748088154724627115_);" d="M35.2,108.4c-4.2,0-7.7,3.4-7.7,7.7   c0,4.2,3.4,7.7,7.7,7.7s7.7-3.4,7.7-7.7C42.9,111.9,39.4,108.4,35.2,108.4"></path>
	
		<linearGradient id="SVGID_00000091713352787251493110000012306455847741513619_" gradientUnits="userSpaceOnUse" x1="132.7915" y1="116.1135" x2="51.3816" y2="116.1135">
		<stop offset="0" style="stop-color:#28503C"></stop>
		<stop offset="9.835160e-03" style="stop-color:#28503C"></stop>
		<stop offset="0.1819" style="stop-color:#2A553C"></stop>
		<stop offset="0.3743" style="stop-color:#30623A"></stop>
		<stop offset="0.5764" style="stop-color:#3A7838"></stop>
		<stop offset="0.7839" style="stop-color:#489736"></stop>
		<stop offset="0.9902" style="stop-color:#5ABE32"></stop>
		<stop offset="1" style="stop-color:#5ABE32"></stop>
	</linearGradient>
	<path style="fill:url(#SVGID_00000091713352787251493110000012306455847741513619_);" d="M12.9,108.4c-4.2,0-7.7,3.4-7.7,7.7   c0,4.2,3.4,7.7,7.7,7.7s7.7-3.4,7.7-7.7C20.5,111.9,17.1,108.4,12.9,108.4"></path>
	
		<linearGradient id="SVGID_00000151522580627992287380000016450521000654635965_" gradientUnits="userSpaceOnUse" x1="132.7915" y1="95.0735" x2="51.3816" y2="95.0735">
		<stop offset="0" style="stop-color:#28503C"></stop>
		<stop offset="9.835160e-03" style="stop-color:#28503C"></stop>
		<stop offset="0.1819" style="stop-color:#2A553C"></stop>
		<stop offset="0.3743" style="stop-color:#30623A"></stop>
		<stop offset="0.5764" style="stop-color:#3A7838"></stop>
		<stop offset="0.7839" style="stop-color:#489736"></stop>
		<stop offset="0.9902" style="stop-color:#5ABE32"></stop>
		<stop offset="1" style="stop-color:#5ABE32"></stop>
	</linearGradient>
	<path style="fill:url(#SVGID_00000151522580627992287380000016450521000654635965_);" d="M124.6,87.4c-4.2,0-7.7,3.4-7.7,7.7   c0,4.2,3.4,7.7,7.7,7.7c4.2,0,7.7-3.4,7.7-7.7C132.3,90.8,128.9,87.4,124.6,87.4"></path>
	
		<linearGradient id="SVGID_00000005255386239079665310000001356050838107649720_" gradientUnits="userSpaceOnUse" x1="132.7915" y1="95.0735" x2="51.3816" y2="95.0735">
		<stop offset="0" style="stop-color:#28503C"></stop>
		<stop offset="9.835160e-03" style="stop-color:#28503C"></stop>
		<stop offset="0.1819" style="stop-color:#2A553C"></stop>
		<stop offset="0.3743" style="stop-color:#30623A"></stop>
		<stop offset="0.5764" style="stop-color:#3A7838"></stop>
		<stop offset="0.7839" style="stop-color:#489736"></stop>
		<stop offset="0.9902" style="stop-color:#5ABE32"></stop>
		<stop offset="1" style="stop-color:#5ABE32"></stop>
	</linearGradient>
	<path style="fill:url(#SVGID_00000005255386239079665310000001356050838107649720_);" d="M102.3,87.4c-4.2,0-7.7,3.4-7.7,7.7   c0,4.2,3.4,7.7,7.7,7.7s7.7-3.4,7.7-7.7C109.9,90.8,106.5,87.4,102.3,87.4"></path>
	
		<linearGradient id="SVGID_00000083056781720322405290000000516870812191012031_" gradientUnits="userSpaceOnUse" x1="132.7915" y1="95.0735" x2="51.3816" y2="95.0735">
		<stop offset="0" style="stop-color:#28503C"></stop>
		<stop offset="9.835160e-03" style="stop-color:#28503C"></stop>
		<stop offset="0.1819" style="stop-color:#2A553C"></stop>
		<stop offset="0.3743" style="stop-color:#30623A"></stop>
		<stop offset="0.5764" style="stop-color:#3A7838"></stop>
		<stop offset="0.7839" style="stop-color:#489736"></stop>
		<stop offset="0.9902" style="stop-color:#5ABE32"></stop>
		<stop offset="1" style="stop-color:#5ABE32"></stop>
	</linearGradient>
	<path style="fill:url(#SVGID_00000083056781720322405290000000516870812191012031_);" d="M79.9,87.4c-4.2,0-7.7,3.4-7.7,7.7   c0,4.2,3.4,7.7,7.7,7.7s7.7-3.4,7.7-7.7C87.6,90.8,84.2,87.4,79.9,87.4"></path>
	
		<linearGradient id="SVGID_00000033360046079941963870000014405419977369299357_" gradientUnits="userSpaceOnUse" x1="132.7915" y1="95.0735" x2="51.3816" y2="95.0735">
		<stop offset="0" style="stop-color:#28503C"></stop>
		<stop offset="9.835160e-03" style="stop-color:#28503C"></stop>
		<stop offset="0.1819" style="stop-color:#2A553C"></stop>
		<stop offset="0.3743" style="stop-color:#30623A"></stop>
		<stop offset="0.5764" style="stop-color:#3A7838"></stop>
		<stop offset="0.7839" style="stop-color:#489736"></stop>
		<stop offset="0.9902" style="stop-color:#5ABE32"></stop>
		<stop offset="1" style="stop-color:#5ABE32"></stop>
	</linearGradient>
	<path style="fill:url(#SVGID_00000033360046079941963870000014405419977369299357_);" d="M57.6,87.4c-4.2,0-7.7,3.4-7.7,7.7   c0,4.2,3.4,7.7,7.7,7.7s7.7-3.4,7.7-7.7C65.2,90.8,61.8,87.4,57.6,87.4"></path>
	
		<linearGradient id="SVGID_00000175294449734654305090000018428429253575176327_" gradientUnits="userSpaceOnUse" x1="132.7915" y1="95.0735" x2="51.3816" y2="95.0735">
		<stop offset="0" style="stop-color:#28503C"></stop>
		<stop offset="9.835160e-03" style="stop-color:#28503C"></stop>
		<stop offset="0.1819" style="stop-color:#2A553C"></stop>
		<stop offset="0.3743" style="stop-color:#30623A"></stop>
		<stop offset="0.5764" style="stop-color:#3A7838"></stop>
		<stop offset="0.7839" style="stop-color:#489736"></stop>
		<stop offset="0.9902" style="stop-color:#5ABE32"></stop>
		<stop offset="1" style="stop-color:#5ABE32"></stop>
	</linearGradient>
	<path style="fill:url(#SVGID_00000175294449734654305090000018428429253575176327_);" d="M35.2,87.4c-4.2,0-7.7,3.4-7.7,7.7   c0,4.2,3.4,7.7,7.7,7.7s7.7-3.4,7.7-7.7C42.9,90.8,39.4,87.4,35.2,87.4"></path>
	
		<linearGradient id="SVGID_00000072988342406141385420000001213101219809919622_" gradientUnits="userSpaceOnUse" x1="132.7915" y1="95.0735" x2="51.3816" y2="95.0735">
		<stop offset="0" style="stop-color:#28503C"></stop>
		<stop offset="9.835160e-03" style="stop-color:#28503C"></stop>
		<stop offset="0.1819" style="stop-color:#2A553C"></stop>
		<stop offset="0.3743" style="stop-color:#30623A"></stop>
		<stop offset="0.5764" style="stop-color:#3A7838"></stop>
		<stop offset="0.7839" style="stop-color:#489736"></stop>
		<stop offset="0.9902" style="stop-color:#5ABE32"></stop>
		<stop offset="1" style="stop-color:#5ABE32"></stop>
	</linearGradient>
	<path style="fill:url(#SVGID_00000072988342406141385420000001213101219809919622_);" d="M12.9,87.4c-4.2,0-7.7,3.4-7.7,7.7   c0,4.2,3.4,7.7,7.7,7.7s7.7-3.4,7.7-7.7C20.5,90.8,17.1,87.4,12.9,87.4"></path>
	
		<linearGradient id="SVGID_00000116954636242752719760000009473580641634231445_" gradientUnits="userSpaceOnUse" x1="132.7915" y1="74.0335" x2="51.3816" y2="74.0335">
		<stop offset="0" style="stop-color:#28503C"></stop>
		<stop offset="9.835160e-03" style="stop-color:#28503C"></stop>
		<stop offset="0.1819" style="stop-color:#2A553C"></stop>
		<stop offset="0.3743" style="stop-color:#30623A"></stop>
		<stop offset="0.5764" style="stop-color:#3A7838"></stop>
		<stop offset="0.7839" style="stop-color:#489736"></stop>
		<stop offset="0.9902" style="stop-color:#5ABE32"></stop>
		<stop offset="1" style="stop-color:#5ABE32"></stop>
	</linearGradient>
	<path style="fill:url(#SVGID_00000116954636242752719760000009473580641634231445_);" d="M124.6,66.4c-4.2,0-7.7,3.4-7.7,7.7   c0,4.2,3.4,7.7,7.7,7.7c4.2,0,7.7-3.4,7.7-7.7C132.3,69.8,128.9,66.4,124.6,66.4"></path>
	
		<linearGradient id="SVGID_00000151516552954043444990000003458728085124064173_" gradientUnits="userSpaceOnUse" x1="132.7915" y1="74.0335" x2="51.3816" y2="74.0335">
		<stop offset="0" style="stop-color:#28503C"></stop>
		<stop offset="9.835160e-03" style="stop-color:#28503C"></stop>
		<stop offset="0.1819" style="stop-color:#2A553C"></stop>
		<stop offset="0.3743" style="stop-color:#30623A"></stop>
		<stop offset="0.5764" style="stop-color:#3A7838"></stop>
		<stop offset="0.7839" style="stop-color:#489736"></stop>
		<stop offset="0.9902" style="stop-color:#5ABE32"></stop>
		<stop offset="1" style="stop-color:#5ABE32"></stop>
	</linearGradient>
	<path style="fill:url(#SVGID_00000151516552954043444990000003458728085124064173_);" d="M102.3,66.4c-4.2,0-7.7,3.4-7.7,7.7   c0,4.2,3.4,7.7,7.7,7.7s7.7-3.4,7.7-7.7C109.9,69.8,106.5,66.4,102.3,66.4"></path>
	
		<linearGradient id="SVGID_00000034808297991307841540000010737887035227991196_" gradientUnits="userSpaceOnUse" x1="132.7915" y1="74.0335" x2="51.3816" y2="74.0335">
		<stop offset="0" style="stop-color:#28503C"></stop>
		<stop offset="9.835160e-03" style="stop-color:#28503C"></stop>
		<stop offset="0.1819" style="stop-color:#2A553C"></stop>
		<stop offset="0.3743" style="stop-color:#30623A"></stop>
		<stop offset="0.5764" style="stop-color:#3A7838"></stop>
		<stop offset="0.7839" style="stop-color:#489736"></stop>
		<stop offset="0.9902" style="stop-color:#5ABE32"></stop>
		<stop offset="1" style="stop-color:#5ABE32"></stop>
	</linearGradient>
	<path style="fill:url(#SVGID_00000034808297991307841540000010737887035227991196_);" d="M79.9,66.4c-4.2,0-7.7,3.4-7.7,7.7   c0,4.2,3.4,7.7,7.7,7.7s7.7-3.4,7.7-7.7C87.6,69.8,84.2,66.4,79.9,66.4"></path>
	
		<linearGradient id="SVGID_00000088100286971409395300000005301910902822752440_" gradientUnits="userSpaceOnUse" x1="132.7915" y1="74.0335" x2="51.3816" y2="74.0335">
		<stop offset="0" style="stop-color:#28503C"></stop>
		<stop offset="9.835160e-03" style="stop-color:#28503C"></stop>
		<stop offset="0.1819" style="stop-color:#2A553C"></stop>
		<stop offset="0.3743" style="stop-color:#30623A"></stop>
		<stop offset="0.5764" style="stop-color:#3A7838"></stop>
		<stop offset="0.7839" style="stop-color:#489736"></stop>
		<stop offset="0.9902" style="stop-color:#5ABE32"></stop>
		<stop offset="1" style="stop-color:#5ABE32"></stop>
	</linearGradient>
	<path style="fill:url(#SVGID_00000088100286971409395300000005301910902822752440_);" d="M57.6,66.4c-4.2,0-7.7,3.4-7.7,7.7   c0,4.2,3.4,7.7,7.7,7.7s7.7-3.4,7.7-7.7C65.2,69.8,61.8,66.4,57.6,66.4"></path>
	
		<linearGradient id="SVGID_00000163060040431849010590000016509068589457696396_" gradientUnits="userSpaceOnUse" x1="132.7915" y1="74.0335" x2="51.3816" y2="74.0335">
		<stop offset="0" style="stop-color:#28503C"></stop>
		<stop offset="9.835160e-03" style="stop-color:#28503C"></stop>
		<stop offset="0.1819" style="stop-color:#2A553C"></stop>
		<stop offset="0.3743" style="stop-color:#30623A"></stop>
		<stop offset="0.5764" style="stop-color:#3A7838"></stop>
		<stop offset="0.7839" style="stop-color:#489736"></stop>
		<stop offset="0.9902" style="stop-color:#5ABE32"></stop>
		<stop offset="1" style="stop-color:#5ABE32"></stop>
	</linearGradient>
	<path style="fill:url(#SVGID_00000163060040431849010590000016509068589457696396_);" d="M35.2,66.4c-4.2,0-7.7,3.4-7.7,7.7   c0,4.2,3.4,7.7,7.7,7.7s7.7-3.4,7.7-7.7C42.9,69.8,39.4,66.4,35.2,66.4"></path>
	
		<linearGradient id="SVGID_00000037680181804524612010000005786876470000573088_" gradientUnits="userSpaceOnUse" x1="132.7915" y1="74.0335" x2="51.3816" y2="74.0335">
		<stop offset="0" style="stop-color:#28503C"></stop>
		<stop offset="9.835160e-03" style="stop-color:#28503C"></stop>
		<stop offset="0.1819" style="stop-color:#2A553C"></stop>
		<stop offset="0.3743" style="stop-color:#30623A"></stop>
		<stop offset="0.5764" style="stop-color:#3A7838"></stop>
		<stop offset="0.7839" style="stop-color:#489736"></stop>
		<stop offset="0.9902" style="stop-color:#5ABE32"></stop>
		<stop offset="1" style="stop-color:#5ABE32"></stop>
	</linearGradient>
	<path style="fill:url(#SVGID_00000037680181804524612010000005786876470000573088_);" d="M12.9,66.4c-4.2,0-7.7,3.4-7.7,7.7   c0,4.2,3.4,7.7,7.7,7.7s7.7-3.4,7.7-7.7C20.5,69.8,17.1,66.4,12.9,66.4"></path>
	
		<linearGradient id="SVGID_00000147199966701048895430000013767793763766745006_" gradientUnits="userSpaceOnUse" x1="132.7915" y1="52.9935" x2="51.3816" y2="52.9935">
		<stop offset="0" style="stop-color:#28503C"></stop>
		<stop offset="9.835160e-03" style="stop-color:#28503C"></stop>
		<stop offset="0.1819" style="stop-color:#2A553C"></stop>
		<stop offset="0.3743" style="stop-color:#30623A"></stop>
		<stop offset="0.5764" style="stop-color:#3A7838"></stop>
		<stop offset="0.7839" style="stop-color:#489736"></stop>
		<stop offset="0.9902" style="stop-color:#5ABE32"></stop>
		<stop offset="1" style="stop-color:#5ABE32"></stop>
	</linearGradient>
	<path style="fill:url(#SVGID_00000147199966701048895430000013767793763766745006_);" d="M124.6,45.3c-4.2,0-7.7,3.4-7.7,7.7   c0,4.2,3.4,7.7,7.7,7.7c4.2,0,7.7-3.4,7.7-7.7C132.3,48.8,128.9,45.3,124.6,45.3"></path>
	
		<linearGradient id="SVGID_00000089566390925814573940000011669253058715704219_" gradientUnits="userSpaceOnUse" x1="132.7915" y1="52.9935" x2="51.3816" y2="52.9935">
		<stop offset="0" style="stop-color:#28503C"></stop>
		<stop offset="9.835160e-03" style="stop-color:#28503C"></stop>
		<stop offset="0.1819" style="stop-color:#2A553C"></stop>
		<stop offset="0.3743" style="stop-color:#30623A"></stop>
		<stop offset="0.5764" style="stop-color:#3A7838"></stop>
		<stop offset="0.7839" style="stop-color:#489736"></stop>
		<stop offset="0.9902" style="stop-color:#5ABE32"></stop>
		<stop offset="1" style="stop-color:#5ABE32"></stop>
	</linearGradient>
	<path style="fill:url(#SVGID_00000089566390925814573940000011669253058715704219_);" d="M102.3,45.3c-4.2,0-7.7,3.4-7.7,7.7   c0,4.2,3.4,7.7,7.7,7.7s7.7-3.4,7.7-7.7C109.9,48.8,106.5,45.3,102.3,45.3"></path>
	
		<linearGradient id="SVGID_00000004516382862507164290000005647690681084913063_" gradientUnits="userSpaceOnUse" x1="132.7915" y1="52.9935" x2="51.3816" y2="52.9935">
		<stop offset="0" style="stop-color:#28503C"></stop>
		<stop offset="9.835160e-03" style="stop-color:#28503C"></stop>
		<stop offset="0.1819" style="stop-color:#2A553C"></stop>
		<stop offset="0.3743" style="stop-color:#30623A"></stop>
		<stop offset="0.5764" style="stop-color:#3A7838"></stop>
		<stop offset="0.7839" style="stop-color:#489736"></stop>
		<stop offset="0.9902" style="stop-color:#5ABE32"></stop>
		<stop offset="1" style="stop-color:#5ABE32"></stop>
	</linearGradient>
	<path style="fill:url(#SVGID_00000004516382862507164290000005647690681084913063_);" d="M79.9,45.3c-4.2,0-7.7,3.4-7.7,7.7   c0,4.2,3.4,7.7,7.7,7.7s7.7-3.4,7.7-7.7C87.6,48.8,84.2,45.3,79.9,45.3"></path>
	
		<linearGradient id="SVGID_00000142885444667210146230000013530101196969974658_" gradientUnits="userSpaceOnUse" x1="132.7915" y1="52.9935" x2="51.3816" y2="52.9935">
		<stop offset="0" style="stop-color:#28503C"></stop>
		<stop offset="9.835160e-03" style="stop-color:#28503C"></stop>
		<stop offset="0.1819" style="stop-color:#2A553C"></stop>
		<stop offset="0.3743" style="stop-color:#30623A"></stop>
		<stop offset="0.5764" style="stop-color:#3A7838"></stop>
		<stop offset="0.7839" style="stop-color:#489736"></stop>
		<stop offset="0.9902" style="stop-color:#5ABE32"></stop>
		<stop offset="1" style="stop-color:#5ABE32"></stop>
	</linearGradient>
	<path style="fill:url(#SVGID_00000142885444667210146230000013530101196969974658_);" d="M57.6,45.3c-4.2,0-7.7,3.4-7.7,7.7   c0,4.2,3.4,7.7,7.7,7.7s7.7-3.4,7.7-7.7C65.2,48.8,61.8,45.3,57.6,45.3"></path>
	
		<linearGradient id="SVGID_00000069380121271678103380000009132953685011413655_" gradientUnits="userSpaceOnUse" x1="132.7915" y1="52.9935" x2="51.3816" y2="52.9935">
		<stop offset="0" style="stop-color:#28503C"></stop>
		<stop offset="9.835160e-03" style="stop-color:#28503C"></stop>
		<stop offset="0.1819" style="stop-color:#2A553C"></stop>
		<stop offset="0.3743" style="stop-color:#30623A"></stop>
		<stop offset="0.5764" style="stop-color:#3A7838"></stop>
		<stop offset="0.7839" style="stop-color:#489736"></stop>
		<stop offset="0.9902" style="stop-color:#5ABE32"></stop>
		<stop offset="1" style="stop-color:#5ABE32"></stop>
	</linearGradient>
	<path style="fill:url(#SVGID_00000069380121271678103380000009132953685011413655_);" d="M35.2,45.3c-4.2,0-7.7,3.4-7.7,7.7   c0,4.2,3.4,7.7,7.7,7.7s7.7-3.4,7.7-7.7C42.9,48.8,39.4,45.3,35.2,45.3"></path>
	
		<linearGradient id="SVGID_00000083805619103888869860000014864564614349798019_" gradientUnits="userSpaceOnUse" x1="132.7915" y1="52.9935" x2="51.3816" y2="52.9935">
		<stop offset="0" style="stop-color:#28503C"></stop>
		<stop offset="9.835160e-03" style="stop-color:#28503C"></stop>
		<stop offset="0.1819" style="stop-color:#2A553C"></stop>
		<stop offset="0.3743" style="stop-color:#30623A"></stop>
		<stop offset="0.5764" style="stop-color:#3A7838"></stop>
		<stop offset="0.7839" style="stop-color:#489736"></stop>
		<stop offset="0.9902" style="stop-color:#5ABE32"></stop>
		<stop offset="1" style="stop-color:#5ABE32"></stop>
	</linearGradient>
	<path style="fill:url(#SVGID_00000083805619103888869860000014864564614349798019_);" d="M12.9,45.3c-4.2,0-7.7,3.4-7.7,7.7   c0,4.2,3.4,7.7,7.7,7.7s7.7-3.4,7.7-7.7C20.5,48.8,17.1,45.3,12.9,45.3"></path>
	
		<linearGradient id="SVGID_00000135674004375305414290000008069363974314528430_" gradientUnits="userSpaceOnUse" x1="132.7915" y1="31.9535" x2="51.3816" y2="31.9535">
		<stop offset="0" style="stop-color:#28503C"></stop>
		<stop offset="9.835160e-03" style="stop-color:#28503C"></stop>
		<stop offset="0.1819" style="stop-color:#2A553C"></stop>
		<stop offset="0.3743" style="stop-color:#30623A"></stop>
		<stop offset="0.5764" style="stop-color:#3A7838"></stop>
		<stop offset="0.7839" style="stop-color:#489736"></stop>
		<stop offset="0.9902" style="stop-color:#5ABE32"></stop>
		<stop offset="1" style="stop-color:#5ABE32"></stop>
	</linearGradient>
	<path style="fill:url(#SVGID_00000135674004375305414290000008069363974314528430_);" d="M124.6,24.3c-4.2,0-7.7,3.4-7.7,7.7   c0,4.2,3.4,7.7,7.7,7.7c4.2,0,7.7-3.4,7.7-7.7C132.3,27.7,128.9,24.3,124.6,24.3"></path>
	
		<linearGradient id="SVGID_00000103263521188730867600000002129134440024237742_" gradientUnits="userSpaceOnUse" x1="132.7915" y1="31.9535" x2="51.3816" y2="31.9535">
		<stop offset="0" style="stop-color:#28503C"></stop>
		<stop offset="9.835160e-03" style="stop-color:#28503C"></stop>
		<stop offset="0.1819" style="stop-color:#2A553C"></stop>
		<stop offset="0.3743" style="stop-color:#30623A"></stop>
		<stop offset="0.5764" style="stop-color:#3A7838"></stop>
		<stop offset="0.7839" style="stop-color:#489736"></stop>
		<stop offset="0.9902" style="stop-color:#5ABE32"></stop>
		<stop offset="1" style="stop-color:#5ABE32"></stop>
	</linearGradient>
	<path style="fill:url(#SVGID_00000103263521188730867600000002129134440024237742_);" d="M102.3,24.3c-4.2,0-7.7,3.4-7.7,7.7   c0,4.2,3.4,7.7,7.7,7.7s7.7-3.4,7.7-7.7C109.9,27.7,106.5,24.3,102.3,24.3"></path>
	
		<linearGradient id="SVGID_00000046320409001733846940000002954477463644270506_" gradientUnits="userSpaceOnUse" x1="132.7915" y1="31.9535" x2="51.3816" y2="31.9535">
		<stop offset="0" style="stop-color:#28503C"></stop>
		<stop offset="9.835160e-03" style="stop-color:#28503C"></stop>
		<stop offset="0.1819" style="stop-color:#2A553C"></stop>
		<stop offset="0.3743" style="stop-color:#30623A"></stop>
		<stop offset="0.5764" style="stop-color:#3A7838"></stop>
		<stop offset="0.7839" style="stop-color:#489736"></stop>
		<stop offset="0.9902" style="stop-color:#5ABE32"></stop>
		<stop offset="1" style="stop-color:#5ABE32"></stop>
	</linearGradient>
	<path style="fill:url(#SVGID_00000046320409001733846940000002954477463644270506_);" d="M79.9,24.3c-4.2,0-7.7,3.4-7.7,7.7   c0,4.2,3.4,7.7,7.7,7.7s7.7-3.4,7.7-7.7C87.6,27.7,84.2,24.3,79.9,24.3"></path>
	
		<linearGradient id="SVGID_00000100368575297808271510000010457707135517956769_" gradientUnits="userSpaceOnUse" x1="132.7915" y1="31.9535" x2="51.3816" y2="31.9535">
		<stop offset="0" style="stop-color:#28503C"></stop>
		<stop offset="9.835160e-03" style="stop-color:#28503C"></stop>
		<stop offset="0.1819" style="stop-color:#2A553C"></stop>
		<stop offset="0.3743" style="stop-color:#30623A"></stop>
		<stop offset="0.5764" style="stop-color:#3A7838"></stop>
		<stop offset="0.7839" style="stop-color:#489736"></stop>
		<stop offset="0.9902" style="stop-color:#5ABE32"></stop>
		<stop offset="1" style="stop-color:#5ABE32"></stop>
	</linearGradient>
	<path style="fill:url(#SVGID_00000100368575297808271510000010457707135517956769_);" d="M57.6,24.3c-4.2,0-7.7,3.4-7.7,7.7   c0,4.2,3.4,7.7,7.7,7.7s7.7-3.4,7.7-7.7C65.2,27.7,61.8,24.3,57.6,24.3"></path>
	
		<linearGradient id="SVGID_00000026851799703220947150000015893542144755583142_" gradientUnits="userSpaceOnUse" x1="132.7915" y1="31.9535" x2="51.3816" y2="31.9535">
		<stop offset="0" style="stop-color:#28503C"></stop>
		<stop offset="9.835160e-03" style="stop-color:#28503C"></stop>
		<stop offset="0.1819" style="stop-color:#2A553C"></stop>
		<stop offset="0.3743" style="stop-color:#30623A"></stop>
		<stop offset="0.5764" style="stop-color:#3A7838"></stop>
		<stop offset="0.7839" style="stop-color:#489736"></stop>
		<stop offset="0.9902" style="stop-color:#5ABE32"></stop>
		<stop offset="1" style="stop-color:#5ABE32"></stop>
	</linearGradient>
	<path style="fill:url(#SVGID_00000026851799703220947150000015893542144755583142_);" d="M35.2,24.3c-4.2,0-7.7,3.4-7.7,7.7   c0,4.2,3.4,7.7,7.7,7.7s7.7-3.4,7.7-7.7C42.9,27.7,39.4,24.3,35.2,24.3"></path>
	
		<linearGradient id="SVGID_00000183227932767065289680000010058802696949847213_" gradientUnits="userSpaceOnUse" x1="132.7915" y1="31.9535" x2="51.3816" y2="31.9535">
		<stop offset="0" style="stop-color:#28503C"></stop>
		<stop offset="9.835160e-03" style="stop-color:#28503C"></stop>
		<stop offset="0.1819" style="stop-color:#2A553C"></stop>
		<stop offset="0.3743" style="stop-color:#30623A"></stop>
		<stop offset="0.5764" style="stop-color:#3A7838"></stop>
		<stop offset="0.7839" style="stop-color:#489736"></stop>
		<stop offset="0.9902" style="stop-color:#5ABE32"></stop>
		<stop offset="1" style="stop-color:#5ABE32"></stop>
	</linearGradient>
	<path style="fill:url(#SVGID_00000183227932767065289680000010058802696949847213_);" d="M12.9,24.3c-4.2,0-7.7,3.4-7.7,7.7   c0,4.2,3.4,7.7,7.7,7.7s7.7-3.4,7.7-7.7C20.5,27.7,17.1,24.3,12.9,24.3"></path>
	
		<linearGradient id="SVGID_00000154388996318634644870000001254065412633729718_" gradientUnits="userSpaceOnUse" x1="132.7915" y1="10.9135" x2="51.3816" y2="10.9135">
		<stop offset="0" style="stop-color:#28503C"></stop>
		<stop offset="9.835160e-03" style="stop-color:#28503C"></stop>
		<stop offset="0.1819" style="stop-color:#2A553C"></stop>
		<stop offset="0.3743" style="stop-color:#30623A"></stop>
		<stop offset="0.5764" style="stop-color:#3A7838"></stop>
		<stop offset="0.7839" style="stop-color:#489736"></stop>
		<stop offset="0.9902" style="stop-color:#5ABE32"></stop>
		<stop offset="1" style="stop-color:#5ABE32"></stop>
	</linearGradient>
	<path style="fill:url(#SVGID_00000154388996318634644870000001254065412633729718_);" d="M124.6,3.2c-4.2,0-7.7,3.4-7.7,7.7   c0,4.2,3.4,7.7,7.7,7.7c4.2,0,7.7-3.4,7.7-7.7C132.3,6.7,128.9,3.2,124.6,3.2"></path>
	
		<linearGradient id="SVGID_00000109740676847398960800000006942835324926841240_" gradientUnits="userSpaceOnUse" x1="132.7915" y1="10.9135" x2="51.3816" y2="10.9135">
		<stop offset="0" style="stop-color:#28503C"></stop>
		<stop offset="9.835160e-03" style="stop-color:#28503C"></stop>
		<stop offset="0.1819" style="stop-color:#2A553C"></stop>
		<stop offset="0.3743" style="stop-color:#30623A"></stop>
		<stop offset="0.5764" style="stop-color:#3A7838"></stop>
		<stop offset="0.7839" style="stop-color:#489736"></stop>
		<stop offset="0.9902" style="stop-color:#5ABE32"></stop>
		<stop offset="1" style="stop-color:#5ABE32"></stop>
	</linearGradient>
	<path style="fill:url(#SVGID_00000109740676847398960800000006942835324926841240_);" d="M102.3,3.2c-4.2,0-7.7,3.4-7.7,7.7   c0,4.2,3.4,7.7,7.7,7.7s7.7-3.4,7.7-7.7C109.9,6.7,106.5,3.2,102.3,3.2"></path>
	
		<linearGradient id="SVGID_00000162314509297355366950000003588129582370491826_" gradientUnits="userSpaceOnUse" x1="132.7915" y1="10.9135" x2="51.3816" y2="10.9135">
		<stop offset="0" style="stop-color:#28503C"></stop>
		<stop offset="9.835160e-03" style="stop-color:#28503C"></stop>
		<stop offset="0.1819" style="stop-color:#2A553C"></stop>
		<stop offset="0.3743" style="stop-color:#30623A"></stop>
		<stop offset="0.5764" style="stop-color:#3A7838"></stop>
		<stop offset="0.7839" style="stop-color:#489736"></stop>
		<stop offset="0.9902" style="stop-color:#5ABE32"></stop>
		<stop offset="1" style="stop-color:#5ABE32"></stop>
	</linearGradient>
	<path style="fill:url(#SVGID_00000162314509297355366950000003588129582370491826_);" d="M79.9,3.2c-4.2,0-7.7,3.4-7.7,7.7   c0,4.2,3.4,7.7,7.7,7.7s7.7-3.4,7.7-7.7C87.6,6.7,84.2,3.2,79.9,3.2"></path>
	
		<linearGradient id="SVGID_00000021107914690329488410000017424062538866227888_" gradientUnits="userSpaceOnUse" x1="132.7915" y1="10.9135" x2="51.3816" y2="10.9135">
		<stop offset="0" style="stop-color:#28503C"></stop>
		<stop offset="9.835160e-03" style="stop-color:#28503C"></stop>
		<stop offset="0.1819" style="stop-color:#2A553C"></stop>
		<stop offset="0.3743" style="stop-color:#30623A"></stop>
		<stop offset="0.5764" style="stop-color:#3A7838"></stop>
		<stop offset="0.7839" style="stop-color:#489736"></stop>
		<stop offset="0.9902" style="stop-color:#5ABE32"></stop>
		<stop offset="1" style="stop-color:#5ABE32"></stop>
	</linearGradient>
	<path style="fill:url(#SVGID_00000021107914690329488410000017424062538866227888_);" d="M57.6,3.2c-4.2,0-7.7,3.4-7.7,7.7   c0,4.2,3.4,7.7,7.7,7.7s7.7-3.4,7.7-7.7C65.2,6.7,61.8,3.2,57.6,3.2"></path>
	
		<linearGradient id="SVGID_00000107568497922415958980000013757106745172955563_" gradientUnits="userSpaceOnUse" x1="132.7915" y1="10.9135" x2="51.3816" y2="10.9135">
		<stop offset="0" style="stop-color:#28503C"></stop>
		<stop offset="9.835160e-03" style="stop-color:#28503C"></stop>
		<stop offset="0.1819" style="stop-color:#2A553C"></stop>
		<stop offset="0.3743" style="stop-color:#30623A"></stop>
		<stop offset="0.5764" style="stop-color:#3A7838"></stop>
		<stop offset="0.7839" style="stop-color:#489736"></stop>
		<stop offset="0.9902" style="stop-color:#5ABE32"></stop>
		<stop offset="1" style="stop-color:#5ABE32"></stop>
	</linearGradient>
	<path style="fill:url(#SVGID_00000107568497922415958980000013757106745172955563_);" d="M35.2,3.2c-4.2,0-7.7,3.4-7.7,7.7   c0,4.2,3.4,7.7,7.7,7.7s7.7-3.4,7.7-7.7C42.9,6.7,39.4,3.2,35.2,3.2"></path>
	
		<linearGradient id="SVGID_00000067203640722108332330000011877269684385956508_" gradientUnits="userSpaceOnUse" x1="132.7915" y1="10.9135" x2="51.3816" y2="10.9135">
		<stop offset="0" style="stop-color:#28503C"></stop>
		<stop offset="9.835160e-03" style="stop-color:#28503C"></stop>
		<stop offset="0.1819" style="stop-color:#2A553C"></stop>
		<stop offset="0.3743" style="stop-color:#30623A"></stop>
		<stop offset="0.5764" style="stop-color:#3A7838"></stop>
		<stop offset="0.7839" style="stop-color:#489736"></stop>
		<stop offset="0.9902" style="stop-color:#5ABE32"></stop>
		<stop offset="1" style="stop-color:#5ABE32"></stop>
	</linearGradient>
	<path style="fill:url(#SVGID_00000067203640722108332330000011877269684385956508_);" d="M12.9,3.2c-4.2,0-7.7,3.4-7.7,7.7   c0,4.2,3.4,7.7,7.7,7.7s7.7-3.4,7.7-7.7C20.5,6.7,17.1,3.2,12.9,3.2"></path>
</g>
<g>
	<path class="st36" d="M170.5,37.8h2c0.8,0,1.4-0.1,2-0.3c0.5-0.2,1-0.6,1.3-1l12.5-15.8c0.5-0.7,1.1-1.1,1.6-1.4   c0.6-0.3,1.3-0.4,2.2-0.4h7.2l-15.2,18.8c-0.5,0.6-0.9,1.1-1.4,1.5c-0.4,0.4-0.9,0.7-1.4,1c0.7,0.2,1.3,0.6,1.9,1.1   c0.6,0.5,1.1,1,1.6,1.7L200.4,64H193c-1,0-1.7-0.1-2.2-0.4c-0.5-0.3-0.9-0.7-1.2-1.2l-12.8-16.7c-0.4-0.5-0.9-0.9-1.4-1.2   c-0.5-0.2-1.3-0.4-2.2-0.4h-2.7V64h-8.4V18.8h8.4V37.8z"></path>
	<path class="st36" d="M214.1,46.4V64h-8.4V18.8h13.8c3.1,0,5.7,0.3,7.9,1c2.2,0.6,4,1.5,5.4,2.7c1.4,1.1,2.4,2.5,3.1,4.1   c0.7,1.6,1,3.3,1,5.3c0,1.5-0.2,3-0.7,4.3c-0.4,1.4-1.1,2.6-1.9,3.7c-0.8,1.1-1.9,2.1-3.1,2.9c-1.2,0.8-2.7,1.5-4.2,2   c1.1,0.6,2,1.5,2.7,2.6L241,64h-7.6c-0.7,0-1.3-0.1-1.9-0.4c-0.5-0.3-0.9-0.7-1.3-1.2l-9.5-14.5c-0.4-0.5-0.7-0.9-1.2-1.2   c-0.4-0.2-1.1-0.3-1.9-0.3H214.1z M214.1,40.3h5.2c1.6,0,3-0.2,4.1-0.6c1.2-0.4,2.1-0.9,2.9-1.6c0.8-0.7,1.3-1.5,1.7-2.5   c0.4-1,0.6-2,0.6-3.2c0-2.3-0.8-4.1-2.3-5.3c-1.5-1.2-3.8-1.8-6.9-1.8h-5.4V40.3z"></path>
	<path class="st36" d="M274.8,18.8v6.7h-20v12.5h15.8v6.5h-15.8v12.8h20V64h-28.5V18.8H274.8z"></path>
	<path class="st36" d="M282.1,64V18.8h15.6c3,0,5.5,0.3,7.6,0.8c2.1,0.6,3.8,1.4,5.2,2.4c1.3,1,2.3,2.3,3,3.8c0.6,1.5,0.9,3.1,0.9,5   c0,1.1-0.2,2.1-0.5,3c-0.3,1-0.8,1.9-1.5,2.7c-0.7,0.8-1.5,1.6-2.5,2.3c-1,0.7-2.2,1.3-3.6,1.7c6.2,1.4,9.3,4.7,9.3,10.1   c0,1.9-0.4,3.7-1.1,5.3c-0.7,1.6-1.8,3-3.2,4.2c-1.4,1.2-3.1,2.1-5.2,2.8c-2,0.7-4.4,1-7,1H282.1z M290.5,38.4h6.7   c2.9,0,5-0.5,6.5-1.6c1.5-1,2.2-2.7,2.2-5c0-2.4-0.7-4-2-5c-1.3-1-3.4-1.5-6.2-1.5h-7.2V38.4z M290.5,44.2v13.2h8.5   c1.6,0,2.9-0.2,3.9-0.6c1.1-0.4,1.9-0.9,2.5-1.5c0.6-0.6,1.1-1.4,1.4-2.2c0.3-0.8,0.4-1.7,0.4-2.7c0-1-0.2-1.9-0.5-2.6   c-0.3-0.8-0.8-1.4-1.5-2c-0.7-0.6-1.5-1-2.6-1.3c-1-0.3-2.3-0.4-3.8-0.4H290.5z"></path>
	<path class="st36" d="M347.1,27.1c-0.2,0.5-0.5,0.8-0.8,1c-0.3,0.2-0.7,0.3-1.1,0.3c-0.4,0-0.9-0.2-1.4-0.5   c-0.5-0.3-1.1-0.7-1.8-1.1c-0.7-0.4-1.5-0.8-2.5-1.1c-0.9-0.3-2.1-0.5-3.4-0.5c-1.2,0-2.2,0.1-3,0.4c-0.9,0.3-1.6,0.7-2.2,1.2   c-0.6,0.5-1,1.1-1.3,1.8c-0.3,0.7-0.4,1.5-0.4,2.3c0,1.1,0.3,1.9,0.9,2.7c0.6,0.7,1.4,1.3,2.4,1.8c1,0.5,2.1,0.9,3.3,1.3   c1.2,0.4,2.5,0.8,3.8,1.3c1.3,0.4,2.6,1,3.8,1.6c1.2,0.6,2.4,1.3,3.3,2.2c1,0.9,1.8,2,2.4,3.3c0.6,1.3,0.9,2.9,0.9,4.8   c0,2-0.3,4-1,5.7c-0.7,1.8-1.7,3.3-3.1,4.7c-1.3,1.3-3,2.4-4.9,3.1c-1.9,0.8-4.2,1.1-6.7,1.1c-1.4,0-2.9-0.1-4.2-0.4   c-1.4-0.3-2.7-0.7-4-1.2c-1.3-0.5-2.5-1.1-3.6-1.9c-1.1-0.7-2.1-1.5-3-2.4l2.4-4c0.2-0.3,0.5-0.5,0.8-0.7c0.3-0.2,0.7-0.3,1.1-0.3   c0.5,0,1.1,0.2,1.7,0.6c0.6,0.4,1.3,0.9,2.1,1.4c0.8,0.5,1.8,1,2.9,1.4c1.1,0.4,2.5,0.6,4,0.6c2.4,0,4.2-0.6,5.6-1.7   c1.3-1.1,2-2.8,2-4.9c0-1.2-0.3-2.2-0.9-2.9c-0.6-0.7-1.4-1.4-2.4-1.9c-1-0.5-2.1-0.9-3.3-1.3c-1.3-0.4-2.5-0.7-3.8-1.2   c-1.3-0.4-2.6-0.9-3.8-1.5c-1.3-0.6-2.4-1.3-3.3-2.3c-1-0.9-1.8-2.1-2.4-3.5c-0.6-1.4-0.9-3.1-0.9-5.2c0-1.6,0.3-3.2,1-4.8   c0.7-1.6,1.6-2.9,2.9-4.2c1.3-1.2,2.8-2.2,4.6-2.9c1.8-0.7,3.9-1.1,6.3-1.1c2.7,0,5.1,0.4,7.4,1.3c2.3,0.8,4.2,2,5.7,3.5   L347.1,27.1z"></path>
	<path class="st36" d="M351.9,18.8h6.8c0.7,0,1.3,0.2,1.8,0.5c0.5,0.4,0.8,0.8,1,1.4l10.6,27.6c0.4,0.9,0.7,1.9,1,3   c0.3,1.1,0.6,2.2,0.9,3.4c0.5-2.4,1.1-4.5,1.8-6.3l10.6-27.6c0.2-0.5,0.5-0.9,1-1.3c0.5-0.4,1.1-0.6,1.8-0.6h6.8L377.8,64h-7.6   L351.9,18.8z"></path>
	<path class="st36" d="M429.2,18.8v6.7h-20v12.5H425v6.5h-15.8v12.8h20V64h-28.5V18.8H429.2z"></path>
	<path class="st36" d="M445.2,46.4V64h-8.4V18.8h13.8c3.1,0,5.7,0.3,7.9,1c2.2,0.6,4,1.5,5.4,2.7c1.4,1.1,2.4,2.5,3.1,4.1   c0.7,1.6,1,3.3,1,5.3c0,1.5-0.2,3-0.7,4.3c-0.4,1.4-1.1,2.6-1.9,3.7c-0.8,1.1-1.9,2.1-3.1,2.9c-1.2,0.8-2.7,1.5-4.2,2   c1.1,0.6,2,1.5,2.7,2.6L472.1,64h-7.6c-0.7,0-1.3-0.1-1.9-0.4c-0.5-0.3-0.9-0.7-1.3-1.2l-9.5-14.5c-0.4-0.5-0.7-0.9-1.2-1.2   c-0.4-0.2-1.1-0.3-1.9-0.3H445.2z M445.2,40.3h5.2c1.6,0,3-0.2,4.1-0.6c1.2-0.4,2.1-0.9,2.9-1.6c0.8-0.7,1.3-1.5,1.7-2.5   c0.4-1,0.6-2,0.6-3.2c0-2.3-0.8-4.1-2.3-5.3c-1.5-1.2-3.8-1.8-6.9-1.8h-5.4V40.3z"></path>
	<path class="st36" d="M477.4,64V18.8H493c3,0,5.5,0.3,7.6,0.8s3.8,1.4,5.2,2.4c1.3,1,2.3,2.3,3,3.8c0.6,1.5,0.9,3.1,0.9,5   c0,1.1-0.2,2.1-0.5,3c-0.3,1-0.8,1.9-1.5,2.7c-0.7,0.8-1.5,1.6-2.5,2.3c-1,0.7-2.2,1.3-3.6,1.7c6.2,1.4,9.3,4.7,9.3,10.1   c0,1.9-0.4,3.7-1.1,5.3c-0.7,1.6-1.8,3-3.2,4.2c-1.4,1.2-3.1,2.1-5.2,2.8c-2,0.7-4.4,1-7,1H477.4z M485.9,38.4h6.7   c2.9,0,5-0.5,6.5-1.6c1.5-1,2.2-2.7,2.2-5c0-2.4-0.7-4-2-5c-1.3-1-3.4-1.5-6.2-1.5h-7.2V38.4z M485.9,44.2v13.2h8.5   c1.6,0,2.9-0.2,3.9-0.6c1.1-0.4,1.9-0.9,2.5-1.5c0.6-0.6,1.1-1.4,1.4-2.2c0.3-0.8,0.4-1.7,0.4-2.7c0-1-0.2-1.9-0.5-2.6   c-0.3-0.8-0.8-1.4-1.5-2c-0.7-0.6-1.5-1-2.6-1.3c-1-0.3-2.3-0.4-3.8-0.4H485.9z"></path>
	<path class="st36" d="M557.9,64h-6.5c-0.7,0-1.3-0.2-1.8-0.5c-0.5-0.4-0.8-0.8-1-1.4l-3.4-9.2h-18.7l-3.4,9.2   c-0.2,0.5-0.5,0.9-1,1.3c-0.5,0.4-1.1,0.6-1.8,0.6h-6.5l17.7-45.2h8.6L557.9,64z M528.6,47H543l-5.5-15c-0.2-0.7-0.5-1.5-0.8-2.4   c-0.3-0.9-0.6-1.9-0.9-3c-0.3,1.1-0.6,2.1-0.9,3c-0.3,0.9-0.6,1.7-0.8,2.4L528.6,47z"></path>
	<path class="st36" d="M567.9,18.9c0.3,0,0.5,0.1,0.7,0.2c0.2,0.1,0.4,0.2,0.6,0.4c0.2,0.2,0.4,0.4,0.6,0.7l23.7,30.2   c-0.1-0.7-0.1-1.4-0.2-2.1c0-0.7,0-1.3,0-2V18.8h7.4V64h-4.3c-0.7,0-1.2-0.1-1.7-0.3c-0.4-0.2-0.9-0.6-1.3-1.1l-23.6-30.1   c0.1,0.7,0.1,1.3,0.1,2c0,0.7,0,1.3,0,1.8V64h-7.4V18.8h4.4C567.3,18.8,567.6,18.9,567.9,18.9z"></path>
	<path class="st36" d="M649.9,41.4c0,3.3-0.6,6.4-1.7,9.1c-1.1,2.8-2.7,5.2-4.7,7.2c-2,2-4.4,3.6-7.2,4.7c-2.8,1.1-5.9,1.7-9.3,1.7   h-17.2V18.8H627c3.4,0,6.5,0.6,9.3,1.7c2.8,1.1,5.2,2.7,7.2,4.7c2,2,3.6,4.4,4.7,7.1C649.3,35.1,649.9,38.1,649.9,41.4z    M641.3,41.4c0-2.5-0.3-4.7-1-6.7s-1.6-3.6-2.8-5c-1.2-1.4-2.7-2.4-4.5-3.1c-1.8-0.7-3.7-1.1-6-1.1h-8.8v31.8h8.8   c2.2,0,4.2-0.4,6-1.1c1.8-0.7,3.3-1.8,4.5-3.1c1.2-1.4,2.2-3,2.8-5C641,46.1,641.3,43.9,641.3,41.4z"></path>
</g>
<g>
	<path class="st36" d="M173,79.6c1.5,0,2.7,0.2,3.9,0.5c1.1,0.3,2.1,0.8,2.9,1.4c0.8,0.6,1.4,1.4,1.8,2.3c0.4,0.9,0.6,1.9,0.6,3.1   c0,1.2-0.3,2.4-1,3.3c-0.6,1-1.6,1.7-2.9,2.3c-1.3,0.5-2.9,0.8-4.8,0.8l1.8-1.1v1.8l-1.6-1.1c2.1,0,3.9,0.3,5.3,0.9   c1.4,0.6,2.5,1.4,3.3,2.5c0.8,1,1.1,2.3,1.1,3.7c0,1.3-0.2,2.4-0.7,3.4c-0.4,1-1.1,1.8-1.9,2.5c-0.8,0.7-1.9,1.2-3.1,1.5   c-1.2,0.3-2.6,0.5-4.2,0.5h-13.1v-2.2h0.4c1,0,1.8-0.1,2.4-0.3c0.6-0.2,1-0.6,1-1.2v-21c0-0.6-0.3-1-1-1.2   c-0.6-0.2-1.4-0.3-2.4-0.3h-0.4v-2.1H173z M166.5,91.8h6.4c1.3,0,2.3-0.2,3.2-0.6c0.8-0.4,1.4-1,1.7-1.7c0.4-0.8,0.5-1.7,0.5-2.7   c0-1-0.2-1.9-0.6-2.6c-0.4-0.7-1-1.3-1.7-1.6c-0.8-0.4-1.8-0.6-3.1-0.6h-5.2v23.4h5.6c1.4,0,2.6-0.2,3.5-0.6c0.9-0.4,1.6-1.1,2-1.9   c0.4-0.8,0.7-1.8,0.7-3c0-1.2-0.2-2.2-0.7-3.1c-0.4-0.8-1.1-1.5-2.1-1.9c-0.9-0.4-2.2-0.7-3.7-0.7h-6.5V91.8z"></path>
	<path class="st36" d="M201.7,94.8v2.1c-1.6,0.2-3,0.4-4.2,0.7c-1.2,0.3-2.1,0.6-2.9,0.9c-0.8,0.3-1.4,0.7-1.8,1.1   c-0.4,0.4-0.8,0.8-1,1.3c-0.2,0.5-0.3,1-0.3,1.6c0,0.7,0.2,1.4,0.5,1.9c0.3,0.5,0.7,0.9,1.3,1.1c0.6,0.3,1.2,0.4,1.9,0.4   c0.8,0,1.6-0.2,2.3-0.6c0.7-0.4,1.4-1,2.1-1.8c0.7-0.8,1.3-1.8,1.9-3l0,2.3c-0.5,1.1-1.1,2-1.8,2.8c-0.7,0.8-1.5,1.4-2.4,1.8   c-0.9,0.4-1.9,0.7-3,0.7c-1.3,0-2.4-0.2-3.4-0.7c-1-0.4-1.7-1.1-2.3-1.9c-0.6-0.8-0.8-1.9-0.8-3.1c0-1.1,0.3-2.1,0.8-2.9   c0.5-0.8,1.3-1.5,2.4-2.1c1.1-0.6,2.5-1.1,4.3-1.6C197.1,95.5,199.2,95.1,201.7,94.8z M201.6,107.7l-0.5-4.6l-0.2-0.2V92.5   c0-1-0.1-1.8-0.4-2.4c-0.3-0.6-0.7-1-1.3-1.3c-0.6-0.3-1.5-0.4-2.5-0.4c-1.6,0-2.9,0.2-3.9,0.7c-1,0.4-1.8,0.9-2.3,1.4   c0-0.2,0.1-0.4,0.2-0.7c0.1-0.2,0.3-0.4,0.4-0.6c0.2-0.2,0.4-0.4,0.7-0.5c0.3-0.1,0.5-0.2,0.9-0.3V93h-3.5v-4.8   c0.4-0.3,0.9-0.6,1.6-0.9c0.7-0.3,1.6-0.6,2.6-0.9c1-0.3,2.2-0.4,3.5-0.4c1.1,0,2,0.1,3,0.3c0.9,0.2,1.7,0.6,2.4,1   c0.7,0.5,1.2,1.1,1.6,1.9s0.6,1.7,0.6,2.8v12c0,0.4,0.1,0.7,0.4,0.9c0.3,0.2,0.6,0.4,1.1,0.5c0.5,0.1,1.1,0.2,1.7,0.3l0.2,0v2.1   H201.6z"></path>
	<path class="st36" d="M220,86c1.2,0,2.2,0.2,3.1,0.6c0.9,0.4,1.7,1,2.5,1.7c0.8,0.7,1.4,1.7,2.1,2.8l-0.1,2.6   c-0.7-1.2-1.4-2.2-2.1-3c-0.7-0.8-1.5-1.4-2.4-1.7c-0.9-0.4-1.8-0.6-2.9-0.6c-1,0-1.9,0.2-2.7,0.6c-0.8,0.4-1.5,0.9-2,1.7   c-0.5,0.7-0.9,1.7-1.2,2.8c-0.3,1.1-0.4,2.3-0.4,3.7c0,1.3,0.1,2.6,0.4,3.6c0.3,1.1,0.6,2,1.1,2.7c0.5,0.7,1.1,1.3,1.9,1.6   c0.8,0.4,1.7,0.6,2.7,0.6c1.1,0,2.1-0.2,3-0.6c0.9-0.4,1.7-1,2.5-1.7c0.8-0.8,1.5-1.8,2.2-2.9l0,2.4c-0.7,1.1-1.4,2.1-2.2,2.8   c-0.8,0.8-1.6,1.4-2.6,1.8c-1,0.4-2.1,0.6-3.3,0.6c-2,0-3.7-0.5-5.1-1.4c-1.4-0.9-2.5-2.2-3.2-3.8c-0.8-1.6-1.1-3.5-1.1-5.7   c0-2.2,0.4-4.1,1.2-5.8c0.8-1.7,1.9-3,3.4-4C216.2,86.5,218,86,220,86z M230.5,104c0,0.6,0.3,1,0.9,1.2c0.6,0.2,1.4,0.3,2.4,0.4   l0.2,0v2.1h-6.3l-0.5-4.6l-0.2,0V81.6c0-0.4-0.1-0.7-0.3-0.9c-0.2-0.2-0.6-0.4-1-0.5c-0.5-0.1-1.1-0.3-1.8-0.4l-0.4-0.1v-2.1h7.1   V104z"></path>
	<path class="st36" d="M240.5,97.3c0,1.5,0.2,2.8,0.5,3.9c0.4,1.1,0.9,2,1.5,2.6c0.7,0.7,1.4,1.2,2.3,1.5c0.9,0.3,1.8,0.5,2.8,0.5   c1.1,0,2.1-0.2,2.9-0.6c0.8-0.4,1.5-0.9,2.1-1.5c0.6-0.6,1.1-1.3,1.5-1.9l1.9,1.5c-0.5,0.9-1.2,1.8-2,2.5c-0.8,0.8-1.8,1.3-2.9,1.7   c-1.1,0.4-2.3,0.6-3.7,0.6c-2,0-3.8-0.4-5.4-1.3c-1.6-0.8-2.9-2.1-3.8-3.7c-0.9-1.6-1.4-3.6-1.4-5.9c0-2.2,0.4-4.2,1.3-5.9   c0.9-1.7,2-3,3.5-3.9c1.5-0.9,3.2-1.4,5.1-1.4c1.6,0,2.9,0.3,4,0.8c1.1,0.5,2.1,1.3,2.9,2.3c0.8,1,1.3,2.3,1.7,3.8   c0.4,1.5,0.6,3.3,0.6,5.3h-16.4v-2.3h13.8l-1,0.9c-0.1-1.5-0.2-2.8-0.4-3.8c-0.2-1-0.6-1.9-1-2.5c-0.4-0.6-1-1.1-1.7-1.4   c-0.7-0.3-1.5-0.4-2.5-0.4c-0.9,0-1.8,0.2-2.6,0.5c-0.8,0.4-1.5,0.9-2,1.6c-0.6,0.7-1,1.7-1.3,2.8   C240.6,94.5,240.5,95.8,240.5,97.3z"></path>
	<path class="st36" d="M259.5,107.7v-1.9h0.1c0.7,0,1.3-0.1,1.8-0.2c0.5-0.1,0.9-0.3,1.2-0.7c0.3-0.3,0.4-0.8,0.4-1.4V90.3   c0-0.4-0.1-0.7-0.3-0.9c-0.2-0.2-0.6-0.4-1-0.5c-0.4-0.1-1-0.3-1.7-0.4l-0.4-0.1v-2.1h6.3l0.5,4.5l0.2,0.2v14.3   c0,0.1,0.2,0.2,0.5,0.2c0.3,0.1,0.7,0.1,1.2,0.1c0.4,0,0.9,0,1.2,0h0.2v1.9H259.5z M283.5,107.7h-10v-1.9h0.1c0.4,0,0.8,0,1.2,0   c0.4,0,0.8-0.1,1.2-0.1c0.3-0.1,0.5-0.1,0.5-0.2v-13c0-0.9-0.1-1.6-0.3-2.1c-0.2-0.6-0.6-1-1.1-1.2c-0.5-0.3-1.2-0.4-2-0.4   c-0.9,0-1.7,0.2-2.6,0.5c-0.8,0.3-1.6,0.9-2.4,1.5c-0.8,0.7-1.6,1.6-2.4,2.7v-2.1c0.8-1.1,1.6-2.1,2.4-2.9c0.8-0.8,1.8-1.3,2.7-1.7   c1-0.4,2-0.6,3.1-0.6c1.3,0,2.4,0.2,3.3,0.7c0.9,0.4,1.6,1.1,2.1,2c0.5,0.9,0.7,2,0.7,3.4v11.6c0,0.6,0.1,1,0.4,1.4   c0.3,0.3,0.6,0.6,1.2,0.7c0.5,0.1,1.1,0.2,1.8,0.2h0.1V107.7z"></path>
	<path class="st36" d="M287.8,94.5h12.1v3h-12.1V94.5z"></path>
	<path class="st36" d="M302.7,79.6h10.2v2.1h-0.7c-0.4,0-0.9,0-1.4,0.1c-0.5,0-0.9,0.1-1.2,0.1c-0.3,0.1-0.5,0.1-0.5,0.2l5.9,23.6   h-0.5l6.5-26.2h4.2l6.7,26.1h-0.5l5.7-23.1c0-0.2-0.2-0.3-0.5-0.4c-0.3-0.1-0.7-0.2-1.2-0.3c-0.5-0.1-0.9-0.1-1.4-0.1h-0.6v-2.1h9   v2.1h-0.2c-0.7,0-1.3,0.1-1.8,0.4c-0.5,0.3-0.8,0.7-1,1.3l-6,24.3h-4.3l-6.7-25.8h0.4l-6.4,25.8h-4.3l-6.5-24.6   c-0.2-0.7-0.5-1.1-0.9-1.2c-0.4-0.1-1-0.2-1.8-0.2h-0.2V79.6z"></path>
	<path class="st36" d="M350.6,86.4v15.3c0,0.8,0.1,1.6,0.3,2.1c0.2,0.6,0.6,1,1.1,1.3c0.5,0.3,1.2,0.4,2,0.4c0.9,0,1.7-0.2,2.5-0.5   c0.8-0.3,1.6-0.9,2.4-1.5c0.8-0.7,1.6-1.6,2.3-2.6v2.1c-0.7,1.1-1.5,2-2.4,2.8c-0.8,0.8-1.7,1.3-2.7,1.7c-1,0.4-2,0.6-3.1,0.6   c-1.2,0-2.3-0.2-3.2-0.7c-0.9-0.4-1.6-1.1-2.1-2c-0.5-0.9-0.7-2-0.7-3.3V90.3c0-0.6-0.3-1-0.8-1.2c-0.5-0.2-1.3-0.4-2.3-0.6   l-0.6-0.1v-2.1H350.6z M352.7,79.8c0,0.8-0.2,1.4-0.7,1.9c-0.5,0.4-1.1,0.6-1.8,0.6c-0.7,0-1.4-0.2-1.8-0.6c-0.5-0.4-0.7-1-0.7-1.9   c0-0.8,0.2-1.5,0.7-1.9c0.5-0.4,1.1-0.6,1.8-0.6c0.7,0,1.4,0.2,1.8,0.6C352.5,78.3,352.7,78.9,352.7,79.8z M364,86.4V104   c0,0.4,0.1,0.7,0.4,0.9c0.3,0.2,0.6,0.4,1.1,0.5c0.5,0.1,1.1,0.2,1.7,0.2l0.2,0v2.1h-6.4l-0.5-4.6l-0.2-0.2V90.3   c0-0.6-0.3-1-0.8-1.2c-0.5-0.2-1.3-0.4-2.4-0.5l-1-0.1v-2.1H364z M362.4,79.8c0,0.8-0.2,1.4-0.7,1.9c-0.5,0.4-1.1,0.6-1.8,0.6   c-0.7,0-1.4-0.2-1.8-0.6c-0.5-0.4-0.7-1-0.7-1.9c0-0.8,0.2-1.5,0.7-1.9c0.5-0.4,1.1-0.6,1.8-0.6c0.7,0,1.4,0.2,1.8,0.6   C362.2,78.3,362.4,78.9,362.4,79.8z"></path>
	<path class="st36" d="M370.2,107.7v-1.9h0.1c1,0,1.8-0.1,2.4-0.4c0.6-0.3,0.9-0.9,0.9-1.8V90.3c0-0.4-0.1-0.7-0.3-0.9   c-0.2-0.2-0.6-0.4-1-0.5c-0.4-0.1-1-0.3-1.7-0.4l-0.4-0.1v-2.1h6.3l0.5,5.3l0.2-0.2v13.4c0,0.2,0.2,0.4,0.6,0.6   c0.4,0.1,0.8,0.2,1.3,0.3c0.5,0,0.9,0.1,1.3,0.1h0.9v1.9H370.2z M385.1,86.1V90c-0.2-0.1-0.4-0.1-0.7-0.1c-0.3,0-0.5-0.1-0.8-0.1   c-0.3,0-0.5,0-0.8,0c-0.7,0-1.4,0.1-2,0.2c-0.6,0.1-1.1,0.4-1.6,0.7c-0.5,0.3-1,0.7-1.4,1.2s-0.9,1.1-1.4,1.7v-1.8   c0.7-1.2,1.3-2.3,2-3.1c0.7-0.8,1.5-1.5,2.3-1.9c0.8-0.4,1.8-0.7,2.9-0.7c0.3,0,0.6,0,0.9,0C384.8,86.1,385,86.1,385.1,86.1z"></path>
	<path class="st36" d="M387.5,88.8v-2.2h0.4c0.9,0,1.7-0.1,2.3-0.2c0.6-0.1,1.1-0.4,1.4-0.7c0.3-0.4,0.5-0.9,0.5-1.7l2.6,2.4h7.6   v2.4H387.5z M395.2,101.3c0,1.1,0.2,2,0.5,2.6c0.3,0.6,0.8,1.1,1.4,1.3c0.6,0.3,1.3,0.4,2.2,0.4c0.7,0,1.3,0,1.9-0.1   c0.6-0.1,1-0.2,1.2-0.2v2.4c-0.3,0.1-0.6,0.2-1,0.2c-0.4,0.1-0.8,0.1-1.2,0.2c-0.4,0.1-0.9,0.1-1.3,0.1c-1.2,0-2.4-0.2-3.5-0.6   c-1.1-0.4-2-1.1-2.6-2c-0.7-1-1-2.4-1-4.3V87l0.3-0.3v-6.3h3.3V101.3z"></path>
	<path class="st36" d="M404.3,88.8v-2.2h0.4c0.9,0,1.7-0.1,2.3-0.2c0.6-0.1,1.1-0.4,1.4-0.7c0.3-0.4,0.5-0.9,0.5-1.7l2.6,2.4h7.6   v2.4H404.3z M412.1,101.3c0,1.1,0.2,2,0.5,2.6c0.3,0.6,0.8,1.1,1.4,1.3c0.6,0.3,1.3,0.4,2.2,0.4c0.7,0,1.3,0,1.9-0.1   c0.6-0.1,1-0.2,1.2-0.2v2.4c-0.3,0.1-0.6,0.2-1,0.2c-0.4,0.1-0.8,0.1-1.2,0.2c-0.4,0.1-0.9,0.1-1.3,0.1c-1.2,0-2.4-0.2-3.5-0.6   c-1.1-0.4-2-1.1-2.6-2s-1-2.4-1-4.3V87l0.3-0.3v-6.3h3.3V101.3z"></path>
	<path class="st36" d="M425.8,97.3c0,1.5,0.2,2.8,0.5,3.9c0.4,1.1,0.9,2,1.5,2.6c0.7,0.7,1.4,1.2,2.3,1.5c0.9,0.3,1.8,0.5,2.8,0.5   c1.1,0,2.1-0.2,2.9-0.6c0.8-0.4,1.5-0.9,2.1-1.5c0.6-0.6,1.1-1.3,1.5-1.9l1.9,1.5c-0.5,0.9-1.2,1.8-2,2.5c-0.8,0.8-1.8,1.3-2.9,1.7   c-1.1,0.4-2.3,0.6-3.7,0.6c-2,0-3.8-0.4-5.4-1.3c-1.6-0.8-2.9-2.1-3.8-3.7c-0.9-1.6-1.4-3.6-1.4-5.9c0-2.2,0.4-4.2,1.3-5.9   c0.9-1.7,2-3,3.5-3.9c1.5-0.9,3.2-1.4,5.1-1.4c1.6,0,2.9,0.3,4,0.8c1.1,0.5,2.1,1.3,2.9,2.3c0.8,1,1.3,2.3,1.7,3.8s0.6,3.3,0.6,5.3   H425v-2.3h13.8l-1,0.9c-0.1-1.5-0.2-2.8-0.4-3.8c-0.2-1-0.6-1.9-1-2.5c-0.4-0.6-1-1.1-1.7-1.4c-0.7-0.3-1.5-0.4-2.5-0.4   c-0.9,0-1.8,0.2-2.6,0.5c-0.8,0.4-1.5,0.9-2,1.6c-0.6,0.7-1,1.7-1.3,2.8C426,94.5,425.8,95.8,425.8,97.3z"></path>
	<path class="st36" d="M444.8,107.7v-1.9h0.1c1,0,1.8-0.1,2.4-0.4c0.6-0.3,0.9-0.9,0.9-1.8V90.3c0-0.4-0.1-0.7-0.3-0.9   c-0.2-0.2-0.6-0.4-1-0.5c-0.4-0.1-1-0.3-1.7-0.4l-0.4-0.1v-2.1h6.3l0.5,4.5l0.2,0.2v14.3c0,0.1,0.2,0.2,0.5,0.2   c0.3,0.1,0.7,0.1,1.1,0.1c0.4,0,0.8,0,1.2,0h0.2v1.9H444.8z M467.3,107.7h-9.4v-1.9h0.1c0.4,0,0.8,0,1.2,0c0.4,0,0.8-0.1,1.1-0.1   c0.3-0.1,0.5-0.1,0.5-0.2v-13c0-0.8-0.1-1.6-0.3-2.1c-0.2-0.6-0.5-1-0.9-1.3c-0.4-0.3-1-0.4-1.8-0.4c-0.8,0-1.6,0.2-2.3,0.5   c-0.7,0.3-1.5,0.9-2.2,1.5c-0.7,0.7-1.5,1.5-2.3,2.5l0-2.3c0.8-1,1.5-1.9,2.3-2.6c0.8-0.7,1.6-1.3,2.5-1.7c0.9-0.4,1.9-0.6,2.9-0.6   c1.2,0,2.2,0.2,3,0.7c0.8,0.4,1.5,1.1,1.9,2c0.4,0.9,0.7,2,0.7,3.4v13.4c0,0.1,0.2,0.2,0.5,0.2c0.3,0.1,0.7,0.1,1.1,0.1   c0.4,0,0.9,0,1.2,0h0.1V107.7z M480.5,107.7h-10v-1.9h0.2c0.4,0,0.8,0,1.2,0c0.4,0,0.8-0.1,1.1-0.1c0.3-0.1,0.5-0.1,0.5-0.2v-13   c0-0.8-0.1-1.6-0.3-2.1c-0.2-0.6-0.5-1-0.9-1.3c-0.4-0.3-1-0.4-1.7-0.4c-0.8,0-1.6,0.2-2.4,0.5c-0.8,0.3-1.5,0.9-2.2,1.5   c-0.7,0.7-1.5,1.5-2.3,2.5v-2.3c0.8-1,1.6-1.9,2.4-2.6c0.8-0.7,1.6-1.3,2.5-1.7c0.9-0.4,1.9-0.6,2.9-0.6c1.2,0,2.2,0.2,3,0.7   c0.8,0.4,1.4,1.1,1.9,2c0.4,0.9,0.7,2,0.7,3.4v11.6c0,0.9,0.3,1.5,0.9,1.8c0.6,0.3,1.4,0.4,2.5,0.4h0.2V107.7z"></path>
	<path class="st36" d="M485.4,81.6c0-0.4-0.1-0.7-0.3-0.9c-0.2-0.2-0.6-0.4-1-0.5c-0.4-0.1-1-0.3-1.7-0.4l-0.4-0.1v-2.1h7v25.3   l-0.2,0.3l-1,5h-2.4V81.6z M495.9,108.2c-1.1,0-2.2-0.2-3.1-0.6c-0.9-0.4-1.8-1-2.5-1.7c-0.8-0.8-1.5-1.7-2.1-2.8l0.1-2.5   c0.7,1.1,1.4,2.1,2.2,2.9c0.8,0.8,1.6,1.4,2.4,1.7c0.9,0.4,1.8,0.6,2.9,0.6c1,0,1.9-0.2,2.7-0.6c0.8-0.4,1.4-1,1.9-1.7   c0.5-0.8,0.9-1.7,1.2-2.8s0.4-2.3,0.4-3.7c0-1.4-0.1-2.6-0.4-3.6c-0.2-1-0.6-1.9-1.1-2.7c-0.5-0.7-1.1-1.3-1.9-1.6   c-0.8-0.4-1.6-0.6-2.7-0.6c-1.1,0-2.1,0.2-3,0.6c-0.9,0.4-1.7,1-2.5,1.7c-0.8,0.8-1.5,1.7-2.2,2.9l-0.1-2.4   c0.7-1.1,1.5-2.1,2.2-2.9c0.8-0.8,1.6-1.4,2.6-1.8c1-0.4,2-0.6,3.3-0.6c2,0,3.7,0.5,5.1,1.4c1.4,0.9,2.5,2.2,3.2,3.8   c0.7,1.6,1.1,3.5,1.1,5.7c0,2.2-0.4,4.1-1.2,5.8c-0.8,1.7-1.9,3-3.4,4C499.8,107.7,498,108.2,495.9,108.2z"></path>
	<path class="st36" d="M513.1,97.3c0,1.5,0.2,2.8,0.5,3.9c0.4,1.1,0.9,2,1.5,2.6c0.7,0.7,1.4,1.2,2.3,1.5c0.9,0.3,1.8,0.5,2.8,0.5   c1.1,0,2.1-0.2,2.9-0.6c0.8-0.4,1.5-0.9,2.1-1.5c0.6-0.6,1.1-1.3,1.5-1.9l1.9,1.5c-0.5,0.9-1.2,1.8-2,2.5c-0.8,0.8-1.8,1.3-2.9,1.7   c-1.1,0.4-2.3,0.6-3.7,0.6c-2,0-3.8-0.4-5.4-1.3c-1.6-0.8-2.9-2.1-3.8-3.7c-0.9-1.6-1.4-3.6-1.4-5.9c0-2.2,0.4-4.2,1.3-5.9   c0.9-1.7,2-3,3.5-3.9c1.5-0.9,3.2-1.4,5.1-1.4c1.6,0,2.9,0.3,4,0.8c1.1,0.5,2.1,1.3,2.9,2.3c0.8,1,1.3,2.3,1.7,3.8   c0.4,1.5,0.6,3.3,0.6,5.3h-16.4v-2.3h13.8l-1,0.9c-0.1-1.5-0.2-2.8-0.4-3.8c-0.2-1-0.6-1.9-1-2.5c-0.4-0.6-1-1.1-1.7-1.4   c-0.7-0.3-1.5-0.4-2.5-0.4c-0.9,0-1.8,0.2-2.6,0.5c-0.8,0.4-1.5,0.9-2,1.6c-0.6,0.7-1,1.7-1.3,2.8   C513.3,94.5,513.1,95.8,513.1,97.3z"></path>
	<path class="st36" d="M532.1,107.7v-1.9h0.1c1,0,1.8-0.1,2.4-0.4c0.6-0.3,0.9-0.9,0.9-1.8V90.3c0-0.4-0.1-0.7-0.3-0.9   c-0.2-0.2-0.6-0.4-1-0.5c-0.4-0.1-1-0.3-1.7-0.4l-0.4-0.1v-2.1h6.3l0.5,5.3l0.2-0.2v13.4c0,0.2,0.2,0.4,0.6,0.6   c0.4,0.1,0.8,0.2,1.3,0.3c0.5,0,0.9,0.1,1.3,0.1h0.9v1.9H532.1z M547.1,86.1V90c-0.2-0.1-0.4-0.1-0.7-0.1c-0.3,0-0.5-0.1-0.8-0.1   c-0.3,0-0.5,0-0.8,0c-0.7,0-1.4,0.1-2,0.2c-0.6,0.1-1.1,0.4-1.6,0.7c-0.5,0.3-1,0.7-1.4,1.2c-0.4,0.5-0.9,1.1-1.4,1.7v-1.8   c0.7-1.2,1.3-2.3,2-3.1c0.7-0.8,1.5-1.5,2.3-1.9c0.8-0.4,1.8-0.7,2.9-0.7c0.3,0,0.6,0,0.9,0C546.8,86.1,547,86.1,547.1,86.1z"></path>
	<path class="st36" d="M557.3,117.4c-1.7,0-3.2-0.2-4.6-0.5c-1.3-0.3-2.4-0.9-3.2-1.6c-0.8-0.7-1.2-1.7-1.2-2.9c0-0.8,0.2-1.4,0.5-2   c0.3-0.6,0.9-1.1,1.6-1.6c0.7-0.5,1.6-1,2.7-1.6l1.2,0.8c-0.7,0.5-1.2,0.9-1.6,1.4c-0.4,0.4-0.7,0.9-0.9,1.3   c-0.2,0.4-0.3,0.9-0.3,1.4c0,0.6,0.2,1.2,0.6,1.6c0.4,0.4,1,0.8,1.8,1c0.8,0.3,2,0.4,3.4,0.4h3.4c1.4,0,2.6-0.2,3.6-0.5   c1-0.3,1.7-0.8,2.3-1.4c0.5-0.6,0.8-1.3,0.8-2.2c0-0.8-0.3-1.4-0.8-1.8c-0.5-0.4-1.5-0.6-2.8-0.6h-9.1h-0.1c-1.1-0.2-2-0.5-2.8-0.9   c-0.7-0.4-1.3-0.8-1.6-1.3c-0.3-0.5-0.5-1.1-0.5-1.8c0-0.7,0.2-1.4,0.5-2c0.4-0.6,0.9-1.2,1.5-1.7c0.7-0.5,1.5-1.1,2.4-1.5l1.2,0.8   c-0.6,0.4-1,0.8-1.4,1.1c-0.4,0.4-0.6,0.7-0.8,1c-0.2,0.3-0.3,0.7-0.3,1.1c0,0.6,0.3,1.1,0.8,1.3c0.5,0.3,1.3,0.4,2.3,0.4h7.7   c1.5,0,2.7,0.2,3.7,0.6c1,0.4,1.8,0.9,2.3,1.7c0.5,0.8,0.8,1.7,0.8,2.9c0,1.6-0.5,2.9-1.3,3.9c-0.9,1-2.1,1.8-3.6,2.3   c-1.5,0.5-3.2,0.8-5,0.8H557.3z M559,101.3c-1.6,0-3.1-0.3-4.3-0.9c-1.3-0.6-2.2-1.5-2.9-2.6c-0.7-1.1-1.1-2.5-1.1-4   c0-1.5,0.4-2.8,1.1-4s1.7-2,3-2.7c1.3-0.6,2.7-1,4.3-1c1.6,0,3.1,0.3,4.4,1c1.3,0.6,2.3,1.5,3,2.7s1.1,2.5,1.1,4   c0,1.5-0.4,2.9-1.1,4c-0.7,1.1-1.7,2-3,2.6C562.1,100.9,560.7,101.3,559,101.3z M559,98.9c1.1,0,1.9-0.2,2.7-0.6   c0.7-0.4,1.3-1,1.6-1.8c0.4-0.8,0.6-1.7,0.6-2.9c0-1.1-0.2-2.1-0.6-2.9c-0.4-0.8-0.9-1.4-1.6-1.8c-0.7-0.4-1.6-0.6-2.7-0.6   c-1,0-1.9,0.2-2.6,0.6c-0.7,0.4-1.3,1-1.6,1.8c-0.4,0.8-0.6,1.8-0.6,2.9c0,1.1,0.2,2.1,0.6,2.9c0.4,0.8,0.9,1.4,1.6,1.8   S558,98.9,559,98.9z M571.7,88.8c-1.2-0.1-2.3-0.1-3.1,0c-0.9,0-1.6,0.1-2.2,0.2c-0.6,0.1-1.1,0.4-1.5,0.7l-0.6-0.2   c0.3-0.8,0.8-1.6,1.2-2.2c0.5-0.6,1-1.1,1.6-1.5c0.6-0.4,1.3-0.6,2-0.8c0.8-0.1,1.6-0.2,2.5-0.1V88.8z"></path>
	<path class="st36" d="M588.1,97.3c0,1.5,0.2,2.8,0.5,3.9c0.4,1.1,0.9,2,1.5,2.6c0.7,0.7,1.4,1.2,2.3,1.5c0.9,0.3,1.8,0.5,2.8,0.5   c1.1,0,2.1-0.2,2.9-0.6c0.8-0.4,1.5-0.9,2.1-1.5c0.6-0.6,1.1-1.3,1.5-1.9l1.9,1.5c-0.5,0.9-1.2,1.8-2,2.5c-0.8,0.8-1.8,1.3-2.9,1.7   c-1.1,0.4-2.3,0.6-3.7,0.6c-2,0-3.8-0.4-5.4-1.3c-1.6-0.8-2.9-2.1-3.8-3.7c-0.9-1.6-1.4-3.6-1.4-5.9c0-2.2,0.4-4.2,1.3-5.9   c0.9-1.7,2-3,3.5-3.9c1.5-0.9,3.2-1.4,5.1-1.4c1.6,0,2.9,0.3,4,0.8c1.1,0.5,2.1,1.3,2.9,2.3c0.8,1,1.3,2.3,1.7,3.8   c0.4,1.5,0.6,3.3,0.6,5.3h-16.4v-2.3h13.8l-1,0.9c-0.1-1.5-0.2-2.8-0.4-3.8c-0.2-1-0.6-1.9-1-2.5c-0.4-0.6-1-1.1-1.7-1.4   c-0.7-0.3-1.5-0.4-2.5-0.4c-0.9,0-1.8,0.2-2.6,0.5c-0.8,0.4-1.5,0.9-2,1.6c-0.6,0.7-1,1.7-1.3,2.8   C588.3,94.5,588.1,95.8,588.1,97.3z"></path>
	<path class="st36" d="M610.4,108c-0.9,0-1.6-0.3-2.2-0.8c-0.6-0.5-0.9-1.2-0.9-2.1c0-0.8,0.3-1.5,0.9-2.1c0.6-0.5,1.3-0.8,2.2-0.8   c0.9,0,1.7,0.3,2.3,0.8c0.6,0.5,0.9,1.2,0.9,2.1c0,0.8-0.3,1.5-0.9,2.1C612.1,107.8,611.3,108,610.4,108z"></path>
	<path class="st36" d="M628.3,106.4l-0.6-0.9l7.9-23c0-0.2-0.2-0.3-0.5-0.5c-0.3-0.1-0.7-0.2-1.2-0.3c-0.5-0.1-1.1-0.1-1.7-0.1h-0.6   v-2.1h9.6v2.1H641c-0.8,0-1.4,0.1-1.9,0.4c-0.5,0.3-0.9,0.8-1.2,1.7l-8.4,24.1h-4.2l-8.6-24.4c-0.3-0.8-0.6-1.3-1.1-1.5   c-0.5-0.2-1.1-0.3-1.8-0.3h-0.2v-2.1H624v2.1h-0.6c-0.6,0-1.2,0-1.7,0.1c-0.5,0-1,0.1-1.3,0.1c-0.3,0.1-0.5,0.1-0.5,0.2   L628.3,106.4z"></path>
	<path class="st36" d="M644.2,108c-0.9,0-1.6-0.3-2.2-0.8c-0.6-0.5-0.9-1.2-0.9-2.1c0-0.8,0.3-1.5,0.9-2.1c0.6-0.5,1.3-0.8,2.2-0.8   c0.9,0,1.7,0.3,2.3,0.8c0.6,0.5,0.9,1.2,0.9,2.1c0,0.8-0.3,1.5-0.9,2.1C645.9,107.8,645.2,108,644.2,108z"></path>
</g>
</svg>
